<svg width="73" height="73" viewBox="0 0 73 73" fill="none" xmlns="http://www.w3.org/2000/svg">
<path d="M48.6675 24.3333H30.4175C28.8041 24.3333 27.2568 24.9742 26.116 26.1151C24.9751 27.2559 24.3342 28.8032 24.3342 30.4166C24.3342 32.03 24.9751 33.5773 26.116 34.7182C27.2568 35.859 28.8041 36.5 30.4175 36.5H42.5842C44.1976 36.5 45.7449 37.1409 46.8858 38.2817C48.0266 39.4226 48.6675 40.9699 48.6675 42.5833C48.6675 44.1967 48.0266 45.744 46.8858 46.8849C45.7449 48.0257 44.1976 48.6666 42.5842 48.6666H24.3342M36.5009 54.75V18.25M11.7111 26.2194C11.2672 24.2196 11.3353 22.1401 11.9093 20.1736C12.4833 18.2072 13.5445 16.4175 14.9945 14.9705C16.4445 13.5235 18.2364 12.4661 20.2041 11.8962C22.1717 11.3263 24.2514 11.2625 26.2503 11.7107C27.3505 9.99001 28.8661 8.57398 30.6575 7.59312C32.4489 6.61227 34.4584 6.09814 36.5007 6.09814C38.543 6.09814 40.5525 6.61227 42.3439 7.59312C44.1353 8.57398 45.6509 9.99001 46.7511 11.7107C48.7531 11.2606 50.8363 11.3241 52.8071 11.8953C54.7779 12.4666 56.5722 13.527 58.0231 14.9779C59.474 16.4288 60.5344 18.2231 61.1056 20.1939C61.6769 22.1647 61.7404 24.2479 61.2903 26.2498C63.011 27.35 64.427 28.8657 65.4078 30.6571C66.3887 32.4484 66.9028 34.4579 66.9028 36.5003C66.9028 38.5426 66.3887 40.5521 65.4078 42.3434C64.427 44.1348 63.011 45.6505 61.2903 46.7507C61.7384 48.7496 61.6746 50.8292 61.1048 52.7969C60.5349 54.7645 59.4775 56.5564 58.0305 58.0065C56.5835 59.4565 54.7938 60.5177 52.8273 61.0917C50.8609 61.6656 48.7814 61.7338 46.7815 61.2898C45.6828 63.0171 44.1659 64.4392 42.3715 65.4244C40.5771 66.4097 38.563 66.9262 36.5159 66.9262C34.4688 66.9262 32.4548 66.4097 30.6603 65.4244C28.8659 64.4392 27.3491 63.0171 26.2503 61.2898C24.2514 61.738 22.1717 61.6742 20.2041 61.1043C18.2364 60.5345 16.4445 59.477 14.9945 58.03C13.5445 56.583 12.4833 54.7933 11.9093 52.8269C11.3353 50.8604 11.2672 48.7809 11.7111 46.7811C9.97724 45.6838 8.54905 44.1658 7.5594 42.3683C6.56974 40.5708 6.05078 38.5522 6.05078 36.5003C6.05078 34.4483 6.56974 32.4297 7.5594 30.6322C8.54905 28.8347 9.97724 27.3167 11.7111 26.2194Z" stroke="white" stroke-width="4" stroke-linecap="round" stroke-linejoin="round"/>
</svg>
