<svg width="73" height="73" viewBox="0 0 73 73" fill="none" xmlns="http://www.w3.org/2000/svg">
<path d="M42.582 54.7498V18.2498C42.582 16.6364 41.9411 15.0891 40.8003 13.9483C39.6594 12.8074 38.1121 12.1665 36.4987 12.1665H12.1654C10.552 12.1665 9.00464 12.8074 7.8638 13.9483C6.72295 15.0891 6.08203 16.6364 6.08203 18.2498V51.7082C6.08203 52.5149 6.40249 53.2885 6.97291 53.859C7.54334 54.4294 8.317 54.7498 9.1237 54.7498H15.207M15.207 54.7498C15.207 58.1096 17.9306 60.8332 21.2904 60.8332C24.6501 60.8332 27.3737 58.1096 27.3737 54.7498M15.207 54.7498C15.207 51.3901 17.9306 48.6665 21.2904 48.6665C24.6501 48.6665 27.3737 51.3901 27.3737 54.7498M45.6237 54.7498H27.3737M45.6237 54.7498C45.6237 58.1096 48.3473 60.8332 51.707 60.8332C55.0668 60.8332 57.7904 58.1096 57.7904 54.7498M45.6237 54.7498C45.6237 51.3901 48.3473 48.6665 51.707 48.6665C55.0668 48.6665 57.7904 51.3901 57.7904 54.7498M57.7904 54.7498H63.8737C64.6804 54.7498 65.4541 54.4294 66.0245 53.859C66.5949 53.2885 66.9154 52.5149 66.9154 51.7082V40.6061C66.9141 39.9158 66.6782 39.2465 66.2462 38.7081L55.6612 25.4768C55.3767 25.1206 55.0158 24.8329 54.6051 24.6349C54.1945 24.4369 53.7446 24.3338 53.2887 24.3332H42.582" stroke="white" stroke-width="4" stroke-linecap="round" stroke-linejoin="round"/>
</svg>
