<svg width="73" height="73" viewBox="0 0 73 73" fill="none" xmlns="http://www.w3.org/2000/svg">
<path d="M44.7126 19.1625C44.1553 19.7311 43.8431 20.4955 43.8431 21.2917C43.8431 22.0878 44.1553 22.8523 44.7126 23.4208L49.5793 28.2875C50.1478 28.8448 50.9123 29.157 51.7084 29.157C52.5046 29.157 53.269 28.8448 53.8376 28.2875L65.3047 16.8204C66.8341 20.2003 67.2972 23.966 66.6323 27.6157C65.9673 31.2655 64.2058 34.6259 61.5825 37.2491C58.9593 39.8723 55.5989 41.6338 51.9492 42.2988C48.2994 42.9638 44.5337 42.5007 41.1539 40.9713L20.1359 61.9892C18.9259 63.1992 17.2847 63.879 15.5734 63.879C13.8622 63.879 12.221 63.1992 11.0109 61.9892C9.80089 60.7791 9.12109 59.1379 9.12109 57.4267C9.12109 55.7154 9.80089 54.0742 11.0109 52.8642L32.0289 31.8463C30.4994 28.4664 30.0363 24.7007 30.7013 21.0509C31.3663 17.4012 33.1278 14.0408 35.751 11.4176C38.3742 8.79434 41.7346 7.03286 45.3844 6.36787C49.0341 5.70288 52.7998 6.16597 56.1797 7.69543L44.743 19.1321L44.7126 19.1625Z" stroke="white" stroke-width="4" stroke-linecap="round" stroke-linejoin="round"/>
</svg>
