<svg width="158" height="20" viewBox="0 0 158 20" fill="none" xmlns="http://www.w3.org/2000/svg">
<path d="M8.776 19.312C7.04267 19.312 5.53467 18.9307 4.252 18.168C2.96933 17.388 1.97267 16.3047 1.262 14.918C0.551333 13.514 0.196 11.8847 0.196 10.03C0.196 8.158 0.56 6.51133 1.288 5.09C2.016 3.65133 3.06467 2.52467 4.434 1.71C5.80333 0.895333 7.44133 0.488 9.348 0.488C11.48 0.488 13.248 0.999333 14.652 2.022C16.0733 3.04467 16.992 4.466 17.408 6.286H13.482C13.222 5.48867 12.7367 4.86467 12.026 4.414C11.3327 3.946 10.4313 3.712 9.322 3.712C8.14333 3.712 7.138 3.972 6.306 4.492C5.474 5.012 4.84133 5.74 4.408 6.676C3.97467 7.612 3.758 8.73 3.758 10.03C3.758 11.3473 3.97467 12.4653 4.408 13.384C4.84133 14.3027 5.45667 15.0047 6.254 15.49C7.06867 15.958 8.022 16.192 9.114 16.192C10.7087 16.192 11.9133 15.7673 12.728 14.918C13.56 14.0513 14.054 12.9333 14.21 11.564H9.738V8.938H17.746V19H14.496L14.236 16.686C13.8547 17.258 13.404 17.7433 12.884 18.142C12.3813 18.5233 11.792 18.8093 11.116 19C10.44 19.208 9.66 19.312 8.776 19.312ZM21.0303 19V0.799999H27.8163C29.2897 0.799999 30.503 1.05133 31.4563 1.554C32.4097 2.05667 33.1203 2.73267 33.5883 3.582C34.0563 4.414 34.2903 5.34133 34.2903 6.364C34.2903 7.33467 34.065 8.24467 33.6143 9.094C33.1637 9.926 32.453 10.602 31.4823 11.122C30.529 11.6247 29.2983 11.876 27.7903 11.876H24.5403V19H21.0303ZM30.4683 19L26.7243 10.992H30.5203L34.4723 19H30.4683ZM24.5403 9.328H27.6083C28.6657 9.328 29.4457 9.068 29.9483 8.548C30.451 8.028 30.7023 7.34333 30.7023 6.494C30.7023 5.64467 30.451 4.97733 29.9483 4.492C29.463 3.98933 28.683 3.738 27.6083 3.738H24.5403V9.328ZM45.8307 19.312C44.0627 19.312 42.5027 18.9133 41.1507 18.116C39.7987 17.3187 38.7413 16.218 37.9787 14.814C37.216 13.3927 36.8347 11.7547 36.8347 9.9C36.8347 8.04533 37.216 6.416 37.9787 5.012C38.7413 3.59067 39.7987 2.48133 41.1507 1.684C42.5027 0.886666 44.0627 0.488 45.8307 0.488C47.616 0.488 49.1847 0.886666 50.5367 1.684C51.8887 2.48133 52.9373 3.59067 53.6827 5.012C54.4453 6.416 54.8267 8.04533 54.8267 9.9C54.8267 11.7547 54.4453 13.3927 53.6827 14.814C52.9373 16.218 51.8887 17.3187 50.5367 18.116C49.1847 18.9133 47.616 19.312 45.8307 19.312ZM45.8307 16.166C46.94 16.166 47.8933 15.9147 48.6907 15.412C49.5053 14.892 50.138 14.164 50.5887 13.228C51.0393 12.292 51.2647 11.1827 51.2647 9.9C51.2647 8.6 51.0393 7.49067 50.5887 6.572C50.138 5.636 49.5053 4.91667 48.6907 4.414C47.8933 3.91133 46.94 3.66 45.8307 3.66C44.7387 3.66 43.7853 3.91133 42.9707 4.414C42.156 4.91667 41.5233 5.636 41.0727 6.572C40.622 7.49067 40.3967 8.6 40.3967 9.9C40.3967 11.1827 40.622 12.292 41.0727 13.228C41.5233 14.164 42.156 14.892 42.9707 15.412C43.7853 15.9147 44.7387 16.166 45.8307 16.166ZM57.3013 19V16.296L65.6993 3.712H57.3533V0.799999H69.7293V3.504L61.3053 16.088H69.7813V19H57.3013ZM72.8272 19V0.799999H79.6132C81.0865 0.799999 82.2999 1.05133 83.2532 1.554C84.2065 2.05667 84.9172 2.73267 85.3852 3.582C85.8532 4.414 86.0872 5.34133 86.0872 6.364C86.0872 7.33467 85.8619 8.24467 85.4112 9.094C84.9605 9.926 84.2499 10.602 83.2792 11.122C82.3259 11.6247 81.0952 11.876 79.5872 11.876H76.3372V19H72.8272ZM82.2652 19L78.5212 10.992H82.3172L86.2692 19H82.2652ZM76.3372 9.328H79.4052C80.4625 9.328 81.2425 9.068 81.7452 8.548C82.2479 8.028 82.4992 7.34333 82.4992 6.494C82.4992 5.64467 82.2479 4.97733 81.7452 4.492C81.2599 3.98933 80.4799 3.738 79.4052 3.738H76.3372V9.328ZM89.2295 19V0.799999H101.19V3.634H92.7395V8.392H100.41V11.122H92.7395V16.166H101.19V19H89.2295ZM104.388 19V0.799999H111.2C112.673 0.799999 113.895 1.05133 114.866 1.554C115.836 2.05667 116.556 2.73267 117.024 3.582C117.492 4.43133 117.726 5.402 117.726 6.494C117.726 7.49933 117.5 8.42667 117.05 9.276C116.599 10.1253 115.888 10.8187 114.918 11.356C113.947 11.876 112.708 12.136 111.2 12.136H107.898V19H104.388ZM107.898 9.302H110.992C112.118 9.302 112.924 9.05067 113.41 8.548C113.912 8.028 114.164 7.34333 114.164 6.494C114.164 5.59267 113.912 4.89933 113.41 4.414C112.924 3.91133 112.118 3.66 110.992 3.66H107.898V9.302ZM117.258 19L123.914 0.799999H127.892L134.522 19H130.804L125.89 4.804L120.95 19H117.258ZM120.196 14.866L121.132 12.136H130.388L131.298 14.866H120.196ZM136.913 19V0.799999H140.423V19H136.913ZM143.997 19V0.799999H150.783C152.256 0.799999 153.47 1.05133 154.423 1.554C155.376 2.05667 156.087 2.73267 156.555 3.582C157.023 4.414 157.257 5.34133 157.257 6.364C157.257 7.33467 157.032 8.24467 156.581 9.094C156.13 9.926 155.42 10.602 154.449 11.122C153.496 11.6247 152.265 11.876 150.757 11.876H147.507V19H143.997ZM153.435 19L149.691 10.992H153.487L157.439 19H153.435ZM147.507 9.328H150.575C151.632 9.328 152.412 9.068 152.915 8.548C153.418 8.028 153.669 7.34333 153.669 6.494C153.669 5.64467 153.418 4.97733 152.915 4.492C152.43 3.98933 151.65 3.738 150.575 3.738H147.507V9.328Z" fill="white"/>
</svg>
